<svg height="512" viewBox="0 0 48 60" width="512" xmlns="http://www.w3.org/2000/svg"><g id="Page-1" fill="none" fill-rule="evenodd"><g id="004---Fridge" fill-rule="nonzero"><path id="Shape" d="m43 20v29c0 2.7614237-2.2385763 5-5 5h-32c-2.76142375 0-5-2.2385763-5-5v-29z" fill="#e8edfc"/><path id="Shape" d="m40 20v29c0 1.3260824-.5267842 2.597852-1.4644661 3.5355339s-2.2094515 1.4644661-3.5355339 1.4644661h3c2.7614237 0 5-2.2385763 5-5v-29z" fill="#cad9fc"/><path id="Shape" d="m43 6v14h-42v-14c0-2.76142375 2.23857625-5 5-5h32c1.3260824 0 2.597852.5267842 3.5355339 1.46446609.9376819.9376819 1.4644661 2.20945146 1.4644661 3.53553391z" fill="#e8edfc"/><path id="Shape" d="m38 1h-3c1.3260824 0 2.597852.5267842 3.5355339 1.46446609.9376819.9376819 1.4644661 2.20945146 1.4644661 3.53553391v14h3v-14c0-1.32608245-.5267842-2.59785201-1.4644661-3.53553391-.9376819-.93768189-2.2094515-1.46446609-3.5355339-1.46446609z" fill="#cad9fc"/><path id="Shape" d="m9 54v2.5c0 1.3807119-1.11928813 2.5-2.5 2.5s-2.5-1.1192881-2.5-2.5v-2.5z" fill="#a4c2f7"/><path id="Shape" d="m40 54v2.5c0 1.3807119-1.1192881 2.5-2.5 2.5s-2.5-1.1192881-2.5-2.5v-2.5z" fill="#a4c2f7"/><path id="Shape" d="m43 32h2c1.1045695 0 2 .8954305 2 2v6c0 1.1045695-.8954305 2-2 2h-2z" fill="#a4c2f7"/><path id="Shape" d="m43 6h2c1.1045695 0 2 .8954305 2 2v6c0 1.1045695-.8954305 2-2 2h-2z" fill="#a4c2f7"/><path id="Shape" d="m6 54h-2v2.5c-.0046303.9489255.53071212 1.8179209 1.38031487 2.2405983.84960274.4226773 1.86562353.3254851 2.61968513-.2505983-.62893652-.4681533-.99969049-1.2059537-1-1.99v-2.5h2c-2.76142375 0-5-2.2385763-5-5v-43c0-2.76142375 2.23857625-5 5-5h-3c-2.76142375 0-5 2.23857625-5 5v43c0 2.7614237 2.23857625 5 5 5z" fill="#fff"/><path id="Rectangle-path" d="m0 41h2v8h-2z" fill="#fff"/><g fill="#428dff"><path id="Shape" d="m1.02 46c-.55228473.0027614-1.00223852-.4427153-1.00499994-.995-.00276143-.5522847.44271521-1.0022385.99499994-1.005h.01c.55228475 0 1 .4477153 1 1s-.44771525 1-1 1z"/><path id="Shape" d="m3 54.188v2.312c.00000004 1.9329966 1.5670034 3.4999999 3.5 3.4999999s3.49999996-1.5670033 3.5-3.4999999v-1.5h24v1.5c0 1.9329966 1.5670034 3.5 3.5 3.5s3.5-1.5670034 3.5-3.5v-2.312c1.8538865-1.0703392 2.9970902-3.0473196 3-5.188v-6h1c1.6568542 0 3-1.3431458 3-3v-6c0-1.6568542-1.3431458-3-3-3h-1v-14h1c1.6568542 0 3-1.3431458 3-3v-6c0-1.65685425-1.3431458-3-3-3h-1.09c-.4898665-2.88330337-2.9853841-4.99457036-5.91-5h-32c-3.31233757.00330738-5.99669262 2.68766243-6 6v35c0 .5522847.44771525 1 1 1s1-.4477153 1-1v-20h40v28c0 2.209139-1.790861 4-4 4h-32c-2.209139 0-4-1.790861-4-4 0-.5522847-.44771525-1-1-1s-1 .4477153-1 1c.00290977 2.1406804 1.14611355 4.1176608 3 5.188zm42-21.188c.5522847 0 1 .4477153 1 1v6c0 .5522847-.4477153 1-1 1h-1v-8zm1-25v6c0 .5522847-.4477153 1-1 1h-1v-8h1c.5522847 0 1 .44771525 1 1zm-44 11v-13c0-2.209139 1.790861-4 4-4h32c2.209139 0 4 1.790861 4 4v13zm36 36h1v1.5c0 .8284271-.6715729 1.5-1.5 1.5s-1.5-.6715729-1.5-1.5v-1.5zm-30 0v1.5c0 .8284271-.67157288 1.5-1.5 1.5s-1.5-.6715729-1.5-1.5v-1.5z"/><path id="Shape" d="m39 51c.5522847 0 1-.4477153 1-1v-5c0-.5522847-.4477153-1-1-1s-1 .4477153-1 1v4h-4c-.5522847 0-1 .4477153-1 1s.4477153 1 1 1z"/><path id="Shape" d="m39 4h-5c-.5522847 0-1 .44771525-1 1s.4477153 1 1 1h4v4c0 .5522847.4477153 1 1 1s1-.4477153 1-1v-5c0-.55228475-.4477153-1-1-1z"/><path id="Shape" d="m16.487 39.075-3.224-.875c-.347796-.103825-.7245437-.0110445-.9843527.2424136-.259809.253458-.3618831.6277946-.2666957.9780531.0951875.3502585.37269.6214401.7250484.7085333l2.673.728-.72 2.729c-.067646.256465-.0306331.5292985.1028951.7584719.1335282.2291735.3526322.3959113.6091049.4635281.0835119.0222044.1695871.0333.256.033.4537251-.000427.8503003-.3062744.966-.745l.867-3.289 3.509-2.061v4.144l-2.37 2.41c-.2674069.2512222-.3757634.6287105-.2823141.983515.0934494.3548045.373696.6299415.7301599.716847.3564638.0869055.7318946-.0283781.9781542-.300362l1.944-1.974 1.944 1.974c.2462596.2719839.6216904.3872675.9781542.300362.3564639-.0869055.6367105-.3620425.7301599-.716847.0934493-.3548045-.0149072-.7322928-.2823141-.983515l-2.37-2.41v-4.144l3.509 2.054.867 3.289c.1156997.4387256.5122749.744573.966.745.0864085.0002306.1724747-.0108639.256-.033.2564727-.0676168.4755767-.2343546.6091049-.4635281.1335282-.2291734.1705411-.5020069.1028951-.7584719l-.72-2.729 2.673-.728c.3523584-.0870932.6298609-.3582748.7250484-.7085333.0951874-.3502585-.0068867-.7245951-.2666957-.9780531-.259809-.2534581-.6365567-.3462386-.9843527-.2424136l-3.224.878-3.536-2.071 3.536-2.075 3.224.878c.347796.103825.7245437.0110445.9843527-.2424136.259809-.253458.3618831-.6277946.2666957-.9780531-.0951875-.3502585-.37269-.6214401-.7250484-.7085333l-2.673-.728.72-2.729c.0911027-.3454758-.009024-.7133114-.2626635-.9649466s-.6222578-.3488406-.967-.255c-.3447422.0938407-.6132338.3644708-.7043365.7099466l-.867 3.293-3.509 2.054v-4.144l2.37-2.41c.2674069-.2512222.3757634-.6287105.2823141-.983515-.0934494-.3548045-.373696-.6299415-.7301599-.716847-.3564638-.0869055-.7318946.0283781-.9781542.300362l-1.944 1.974-1.944-1.974c-.2462596-.2719839-.6216904-.3872675-.9781542-.300362-.3564639.0869055-.6367105.3620425-.7301599.716847-.0934493.3548045.0149072.7322928.2823141.983515l2.37 2.41v4.144l-3.509-2.054-.867-3.289c-.0911027-.3454758-.3595943-.6161059-.7043365-.7099466-.3447422-.0938406-.7133605.0033648-.967.255s-.3537662.6194708-.2626635.9649466l.72 2.729-2.673.728c-.3523584.0870932-.6298609.3582748-.7250484.7085333-.0951874.3502585.0068867.7245951.2666957.9780531.259809.2534581.6365567.3462386.9843527.2424136l3.224-.878 3.536 2.071z"/><path id="Shape" d="m7 25c.55228475 0 1-.4477153 1-1s-.44771525-1-1-1c-1.65685425 0-3 1.3431458-3 3v7c0 1.6568542 1.34314575 3 3 3 .55228475 0 1-.4477153 1-1s-.44771525-1-1-1-1-.4477153-1-1v-7c0-.5522847.44771525-1 1-1z"/><path id="Shape" d="m7 6c.55228475 0 1-.44771525 1-1s-.44771525-1-1-1c-1.65685425 0-3 1.34314575-3 3v7c0 1.6568542 1.34314575 3 3 3 .55228475 0 1-.4477153 1-1s-.44771525-1-1-1-1-.4477153-1-1v-7c0-.55228475.44771525-1 1-1z"/></g></g></g></svg>